<?xml version="1.0" encoding="utf-8" ?>	<!-- Generator: Assembly 2.2 - http://assemblyapp.co -->	<svg version="1.1" xmlns="http://www.w3.org/2000/svg" xmlns:xlink="http://www.w3.org/1999/xlink" viewBox="0 0 2048.0 2048.0">		<g id="document" transform="matrix(1,0,0,1,1024.0,1024.0)">			<path d="M-612.453,739.159 L-606.614,735.266 L-621.213,714.096 L-751.636,714.096 L-751.636,721.396 L-737.037,721.396 L-737.037,877.125 L-751.636,877.125 L-751.636,884.425 L-683.261,884.425 L-683.261,877.125 L-699.564,877.125 L-699.564,786.851 L-660.632,786.851 L-647.979,805.101 L-642.383,801.207 L-670.122,761.545 L-675.718,765.438 L-665.742,779.551 L-699.564,779.551 L-699.564,721.396 L-624.62,721.396 L-612.453,739.159 Z M-499.55,712.393 L-523.396,712.393 L-590.797,877.125 L-604.18,877.125 L-604.18,884.425 L-568.898,884.425 L-568.898,877.125 L-583.498,877.125 L-559.651,818.727 L-492.98,818.727 L-467.917,877.125 L-482.517,877.125 L-482.517,884.425 L-415.359,884.425 L-415.359,877.125 L-428.742,877.125 L-499.55,712.393 Z M-527.046,739.402 L-496.143,811.427 L-556.732,811.427 L-527.046,739.402 Z M-259.63,721.396 L-243.813,721.396 L-301.725,860.822 L-359.637,721.396 L-343.821,721.396 L-343.821,714.096 L-414.142,714.096 L-414.142,721.396 L-400.029,721.396 L-330.194,886.128 L-305.132,886.128 L-236.514,721.396 L-222.401,721.396 L-222.401,714.096 L-259.63,714.096 L-259.63,721.396 Z M-117.77,709.473 C-134.803,709.473 -150.335,712.636 -164.367,718.963 C-178.399,725.289 -189.957,735.387 -199.041,749.257 C-208.125,763.127 -212.668,779.795 -212.668,799.261 C-212.668,818.727 -208.125,835.395 -199.041,849.264 C-189.957,863.134 -178.399,873.232 -164.367,879.559 C-150.335,885.885 -134.803,889.048 -117.77,889.048 C-105.279,889.048 -93.4375,887.183 -82.2444,883.452 C-71.0514,879.721 -60.9939,874.286 -52.0719,867.149 C-43.1499,860.011 -36.0529,850.603 -30.7808,838.923 C-25.5088,827.243 -22.8727,814.023 -22.8727,799.261 C-22.8727,784.499 -25.5088,771.278 -30.7808,759.598 C-36.0529,747.919 -43.1499,738.51 -52.0719,731.373 C-60.9939,724.235 -71.0514,718.801 -82.2444,715.07 C-93.4375,711.339 -105.279,709.473 -117.77,709.473 Z M-117.77,717.26 C-101.224,717.26 -88.1654,723.789 -78.5945,736.847 C-69.0237,749.906 -64.2383,770.71 -64.2383,799.261 C-64.2383,827.811 -69.0237,848.616 -78.5945,861.674 C-88.1654,874.733 -101.224,881.262 -117.77,881.262 C-153.458,881.262 -171.302,853.928 -171.302,799.261 C-171.302,744.593 -153.458,717.26 -117.77,717.26 Z M-2.18994,714.096 L-2.18994,721.396 L12.4097,721.396 L12.4097,877.125 L-2.18994,877.125 L-2.18994,884.425 L64.4816,884.425 L64.4816,877.125 L49.882,877.125 L49.882,818.727 L66.9149,818.727 C71.6192,818.727 75.5935,819.214 78.8379,820.187 C82.0822,821.16 84.7183,822.255 86.746,823.472 C88.7737,824.688 90.6392,827 92.3425,830.407 C94.0458,833.813 95.3435,836.814 96.2357,839.41 C97.1279,842.005 98.4662,846.385 100.251,852.549 C103.657,864.067 108.808,872.664 115.702,878.342 C122.596,884.02 132.613,886.858 145.753,886.858 C153.864,886.858 159.866,885.804 163.759,883.695 C167.652,881.586 170.653,878.18 172.762,873.475 L167.895,869.582 C165.787,872.34 162.786,873.719 158.892,873.719 C155.81,873.719 153.174,872.908 150.984,871.285 C148.794,869.663 146.888,866.419 145.266,861.552 C142.833,854.577 140.846,849.305 139.305,845.736 C137.763,842.167 135.411,838.152 132.248,833.691 C129.085,829.23 125.516,825.946 121.542,823.837 C117.567,821.728 112.214,819.822 105.482,818.119 C98.7501,816.415 90.7609,815.483 81.5145,815.32 L81.5145,815.077 C107.307,814.753 126.287,810.373 138.453,801.937 C150.619,793.502 156.702,781.011 156.702,764.465 C156.702,746.621 149.605,733.765 135.411,725.898 C121.217,718.03 99.1151,714.096 69.1048,714.096 L-2.18994,714.096 Z M65.2116,721.396 C82.4067,721.396 95.0596,724.843 103.171,731.738 C111.281,738.632 115.337,749.541 115.337,764.465 C115.337,780.687 111.281,792.569 103.171,800.112 C95.0596,807.656 82.4067,811.427 65.2116,811.427 L49.882,811.427 L49.882,721.396 L65.2116,721.396 Z M250.383,714.096 L183.712,714.096 L183.712,721.396 L198.311,721.396 L198.311,877.125 L183.712,877.125 L183.712,884.425 L250.383,884.425 L250.383,877.125 L235.784,877.125 L235.784,721.396 L250.383,721.396 L250.383,714.096 Z M427.768,744.756 L433.852,741.836 L422.172,714.096 L277.636,714.096 L265.956,741.836 L272.039,744.756 L282.016,721.396 L331.168,721.396 L331.168,877.125 L315.351,877.125 L315.351,884.425 L384.456,884.425 L384.456,877.125 L368.64,877.125 L368.64,721.396 L417.792,721.396 L427.768,744.756 Z M587.877,877.125 L501.496,877.125 L501.496,786.851 L544.565,786.851 L556.975,804.614 L562.328,800.721 L535.075,761.788 L529.722,765.682 L539.455,779.551 L501.496,779.551 L501.496,721.396 L580.334,721.396 L592.744,739.646 L598.584,735.752 L583.741,714.096 L449.424,714.096 L449.424,721.396 L464.024,721.396 L464.024,877.125 L449.424,877.125 L449.424,884.425 L591.284,884.425 L606.614,862.526 L601.017,858.632 L587.877,877.125 Z M685.451,888.075 C705.729,888.075 721.829,883.087 733.752,873.11 C745.675,863.134 751.636,848.899 751.636,830.407 C751.636,821.322 750.257,813.617 747.5,807.291 C744.742,800.964 740.2,795.57 733.873,791.109 C727.547,786.648 720.896,782.998 713.921,780.16 C706.945,777.321 697.537,774.198 685.695,770.792 C680.017,769.169 675.718,767.912 672.798,767.02 C669.878,766.128 666.35,764.789 662.214,763.005 C658.077,761.221 655.036,759.396 653.089,757.53 C651.142,755.665 649.398,753.272 647.857,750.352 C646.316,747.432 645.546,744.107 645.546,740.376 C645.546,725.614 657.55,718.233 681.558,718.233 C693.076,718.233 703.214,720.342 711.974,724.559 C720.734,728.777 729.331,735.59 737.767,744.999 L743.12,740.619 L724.627,712.15 L718.544,716.286 L732.9,733.319 L732.413,733.806 C719.923,718.233 702.079,710.446 678.882,710.446 C661.524,710.446 647.655,714.178 637.273,721.64 C626.891,729.102 621.7,740.213 621.7,754.975 C621.7,769.575 626.607,780.606 636.421,788.068 C646.235,795.53 662.741,802.83 685.938,809.967 C692.265,811.914 696.928,813.455 699.929,814.59 C702.93,815.726 706.54,817.348 710.757,819.457 C714.975,821.566 718.017,823.715 719.882,825.905 C721.748,828.095 723.37,831.015 724.749,834.665 C726.128,838.315 726.817,842.492 726.817,847.196 C726.817,858.389 723.005,866.703 715.381,872.137 C707.756,877.571 697.131,880.289 683.505,880.289 C658.848,880.289 637.11,867.798 618.293,842.816 L612.697,846.709 L636.299,883.938 L641.409,880.045 L626.81,859.849 L627.296,859.362 C641.409,878.504 660.794,888.075 685.451,888.075 Z " fill="#ffffff" fill-opacity="1.00" />			<path d="M495.95,558.698 L321.133,-17.0603 L801.881,-381.897 L197.62,-395.199 L0,-965.257 L-197.62,-395.199 L-801.881,-381.897 L-321.133,-17.0603 L-495.95,558.698 L0,214.763 L495.95,558.698 Z " fill="#ffffff" fill-opacity="1.00" />		</g>	</svg>