<?xml version="1.0" encoding="utf-8" ?>	<!-- Generator: Assembly 2.2 - http://assemblyapp.co -->	<svg version="1.1" xmlns="http://www.w3.org/2000/svg" xmlns:xlink="http://www.w3.org/1999/xlink" viewBox="0 0 2048.0 2048.0">		<g id="document" transform="matrix(1,0,0,1,1024.0,1024.0)">			<path d="M-445.531,709.96 C-460.131,709.96 -473.717,711.785 -486.288,715.435 C-498.86,719.085 -510.053,724.478 -519.868,731.616 C-529.682,738.754 -537.428,748.122 -543.105,759.72 C-548.783,771.319 -551.622,784.499 -551.622,799.261 C-551.622,818.402 -546.796,834.868 -537.144,848.656 C-527.492,862.445 -515.204,872.543 -500.28,878.95 C-485.356,885.358 -468.891,888.562 -450.884,888.562 C-436.609,888.562 -422.496,886.939 -408.546,883.695 C-394.595,880.451 -382.834,875.99 -373.263,870.312 L-373.263,781.741 L-433.852,781.741 L-433.852,789.041 L-410.736,789.041 L-410.736,871.772 C-421.442,877.774 -434.825,880.775 -450.884,880.775 C-469.377,880.775 -483.896,874.246 -494.44,861.187 C-504.984,848.129 -510.256,827.487 -510.256,799.261 C-510.256,770.548 -504.66,749.784 -493.467,736.969 C-482.274,724.154 -466.295,717.746 -445.531,717.746 C-415.034,717.746 -392.892,728.372 -379.103,749.622 L-373.263,745.972 L-393.703,711.663 L-399.786,715.8 L-386.16,732.589 L-386.646,733.076 C-398.813,717.665 -418.441,709.96 -445.531,709.96 Z M-344.064,714.096 L-344.064,721.396 L-329.464,721.396 L-329.464,877.125 L-344.064,877.125 L-344.064,884.425 L-277.392,884.425 L-277.392,877.125 L-291.992,877.125 L-291.992,818.727 L-274.959,818.727 C-270.255,818.727 -266.281,819.214 -263.036,820.187 C-259.792,821.16 -257.156,822.255 -255.128,823.472 C-253.1,824.688 -251.235,827 -249.532,830.407 C-247.828,833.813 -246.531,836.814 -245.638,839.41 C-244.746,842.005 -243.408,846.385 -241.623,852.549 C-238.217,864.067 -233.066,872.664 -226.172,878.342 C-219.278,884.02 -209.261,886.858 -196.121,886.858 C-188.01,886.858 -182.008,885.804 -178.115,883.695 C-174.222,881.586 -171.221,878.18 -169.112,873.475 L-173.979,869.582 C-176.087,872.34 -179.088,873.719 -182.982,873.719 C-186.064,873.719 -188.7,872.908 -190.89,871.285 C-193.08,869.663 -194.986,866.419 -196.608,861.552 C-199.041,854.577 -201.028,849.305 -202.57,845.736 C-204.111,842.167 -206.463,838.152 -209.626,833.691 C-212.789,829.23 -216.358,825.946 -220.332,823.837 C-224.307,821.728 -229.66,819.822 -236.392,818.119 C-243.124,816.415 -251.113,815.483 -260.36,815.32 L-260.36,815.077 C-234.567,814.753 -215.587,810.373 -203.421,801.937 C-191.255,793.502 -185.172,781.011 -185.172,764.465 C-185.172,746.621 -192.269,733.765 -206.463,725.898 C-220.657,718.03 -242.759,714.096 -272.769,714.096 L-344.064,714.096 Z M-276.662,721.396 C-259.467,721.396 -246.814,724.843 -238.704,731.738 C-230.593,738.632 -226.537,749.541 -226.537,764.465 C-226.537,780.687 -230.593,792.569 -238.704,800.112 C-246.814,807.656 -259.467,811.427 -276.662,811.427 L-291.992,811.427 L-291.992,721.396 L-276.662,721.396 Z M-64.4816,709.473 C-81.5145,709.473 -97.0468,712.636 -111.079,718.963 C-125.11,725.289 -136.669,735.387 -145.753,749.257 C-154.837,763.127 -159.379,779.795 -159.379,799.261 C-159.379,818.727 -154.837,835.395 -145.753,849.264 C-136.669,863.134 -125.11,873.232 -111.079,879.559 C-97.0468,885.885 -81.5145,889.048 -64.4816,889.048 C-51.9908,889.048 -40.1489,887.183 -28.9559,883.452 C-17.7629,879.721 -7.70535,874.286 1.21663,867.149 C10.1386,860.011 17.2356,850.603 22.5077,838.923 C27.7798,827.243 30.4158,814.023 30.4158,799.261 C30.4158,784.499 27.7798,771.278 22.5077,759.598 C17.2356,747.919 10.1386,738.51 1.21663,731.373 C-7.70535,724.235 -17.7629,718.801 -28.9559,715.07 C-40.1489,711.339 -51.9908,709.473 -64.4816,709.473 Z M-64.4816,717.26 C-47.9354,717.26 -34.8768,723.789 -25.306,736.847 C-15.7351,749.906 -10.9497,770.71 -10.9497,799.261 C-10.9497,827.811 -15.7351,848.616 -25.306,861.674 C-34.8768,874.733 -47.9354,881.262 -64.4816,881.262 C-100.17,881.262 -118.013,853.928 -118.013,799.261 C-118.013,744.593 -100.17,717.26 -64.4816,717.26 Z M182.982,714.096 L182.982,721.396 L197.581,721.396 L197.581,814.834 C197.581,837.706 193.85,854.293 186.388,864.594 C178.926,874.895 166.517,880.045 149.159,880.045 C132.938,880.045 121.014,875.909 113.39,867.636 C105.766,859.362 101.954,846.385 101.954,828.703 L101.954,721.396 L116.554,721.396 L116.554,714.096 L49.882,714.096 L49.882,721.396 L64.4816,721.396 L64.4816,820.917 C64.4816,844.601 70.5648,861.836 82.7311,872.624 C94.8974,883.411 113.39,888.805 138.21,888.805 C162.867,888.805 180.143,883.411 190.038,872.624 C199.933,861.836 204.881,843.303 204.881,817.024 L204.881,721.396 L219.481,721.396 L219.481,714.096 L182.982,714.096 Z M240.163,714.096 L240.163,721.396 L254.763,721.396 L254.763,877.125 L240.163,877.125 L240.163,884.425 L308.052,884.425 L308.052,877.125 L292.235,877.125 L292.235,820.674 L313.648,820.674 C345.118,820.674 367.667,816.213 381.293,807.291 C394.919,798.369 401.732,784.337 401.732,765.195 C401.732,746.864 394.595,733.765 380.32,725.898 C366.045,718.03 343.902,714.096 313.891,714.096 L240.163,714.096 Z M307.565,721.396 C326.058,721.396 339.481,724.843 347.836,731.738 C356.19,738.632 360.367,749.784 360.367,765.195 C360.367,781.579 356.149,793.705 347.714,801.572 C339.279,809.44 325.896,813.374 307.565,813.374 L292.235,813.374 L292.235,721.396 L307.565,721.396 Z M485.437,888.075 C505.714,888.075 521.814,883.087 533.737,873.11 C545.66,863.134 551.622,848.899 551.622,830.407 C551.622,821.322 550.243,813.617 547.485,807.291 C544.727,800.964 540.185,795.57 533.859,791.109 C527.532,786.648 520.881,782.998 513.906,780.16 C506.931,777.321 497.522,774.198 485.68,770.792 C480.003,769.169 475.704,767.912 472.784,767.02 C469.864,766.128 466.336,764.789 462.199,763.005 C458.063,761.221 455.021,759.396 453.074,757.53 C451.128,755.665 449.384,753.272 447.843,750.352 C446.302,747.432 445.531,744.107 445.531,740.376 C445.531,725.614 457.535,718.233 481.544,718.233 C493.061,718.233 503.2,720.342 511.959,724.559 C520.719,728.777 529.317,735.59 537.752,744.999 L543.105,740.619 L524.612,712.15 L518.529,716.286 L532.886,733.319 L532.399,733.806 C519.908,718.233 502.064,710.446 478.867,710.446 C461.51,710.446 447.64,714.178 437.258,721.64 C426.876,729.102 421.685,740.213 421.685,754.975 C421.685,769.575 426.592,780.606 436.406,788.068 C446.221,795.53 462.726,802.83 485.923,809.967 C492.25,811.914 496.914,813.455 499.915,814.59 C502.916,815.726 506.525,817.348 510.743,819.457 C514.96,821.566 518.002,823.715 519.868,825.905 C521.733,828.095 523.355,831.015 524.734,834.665 C526.113,838.315 526.802,842.492 526.802,847.196 C526.802,858.389 522.99,866.703 515.366,872.137 C507.742,877.571 497.117,880.289 483.49,880.289 C458.833,880.289 437.096,867.798 418.279,842.816 L412.682,846.709 L436.285,883.938 L441.395,880.045 L426.795,859.849 L427.282,859.362 C441.395,878.504 460.78,888.075 485.437,888.075 Z " fill="#ffffff" fill-opacity="1.00" />			<g>				<path d="M516.719,-81.9968 C626.66,-81.9968 715.888,-171.225 715.888,-281.166 C715.888,-391.108 626.66,-480.336 516.719,-480.336 C406.777,-480.336 317.549,-391.108 317.549,-281.166 C317.549,-171.225 406.777,-81.9968 516.719,-81.9968 Z M516.719,17.588 C383.674,17.588 118.38,83.7122 118.38,216.757 L118.38,316.342 L915.058,316.342 L915.058,216.757 C915.058,83.7122 649.764,17.588 516.719,17.588 Z " fill="#ffffff" fill-opacity="1.00" />				<path d="M-503.13,-81.9968 C-393.189,-81.9968 -303.961,-171.225 -303.961,-281.166 C-303.961,-391.108 -393.189,-480.336 -503.13,-480.336 C-613.072,-480.336 -702.3,-391.108 -702.3,-281.166 C-702.3,-171.225 -613.072,-81.9968 -503.13,-81.9968 Z M-503.13,17.588 C-636.176,17.588 -901.469,83.7122 -901.469,216.757 L-901.469,316.342 L-104.791,316.342 L-104.791,216.757 C-104.791,83.7122 -370.085,17.588 -503.13,17.588 Z " fill="#ffffff" fill-opacity="1.00" />				<path d="M-5.82077e-13,-116.9 C152.248,-116.9 275.811,-240.463 275.811,-392.711 C275.811,-544.958 152.248,-668.521 -5.82077e-13,-668.521 C-152.248,-668.521 -275.811,-544.958 -275.811,-392.711 C-275.811,-240.463 -152.248,-116.9 -5.82077e-13,-116.9 Z M-5.82077e-13,21.0057 C-184.242,21.0057 -551.622,112.575 -551.622,296.817 L-551.622,434.722 L551.622,434.722 L551.622,296.817 C551.622,112.575 184.242,21.0057 -5.82077e-13,21.0057 Z " fill="#ffffff" fill-opacity="1.00" />			</g>		</g>	</svg>