<?xml version="1.0" encoding="utf-8" ?>	<!-- Generator: Assembly 2.2 - http://assemblyapp.co -->	<svg version="1.1" xmlns="http://www.w3.org/2000/svg" xmlns:xlink="http://www.w3.org/1999/xlink"  viewBox="0 0 2048.0 2048.0">		<g id="document" transform="matrix(1,0,0,1,1024.0,1024.0)">			<path d="M-473.704,101.715 C-468.045,-9.21254 -457.575,-108.538 -442.294,-196.261 C-427.013,-283.984 -412.298,-349.351 -398.149,-392.364 C-384,-435.377 -371.549,-478.955 -360.796,-523.1 C-350.043,-567.244 -344.667,-607.993 -344.667,-645.346 C-344.667,-697.414 -359.098,-737.031 -387.962,-764.196 C-416.826,-791.362 -453.896,-804.945 -499.172,-804.945 C-544.449,-804.945 -581.519,-791.362 -610.382,-764.196 C-639.246,-737.031 -653.678,-697.414 -653.678,-645.346 C-653.678,-607.993 -648.301,-567.244 -637.548,-523.1 C-626.795,-478.955 -614.344,-435.377 -600.195,-392.364 C-586.046,-349.351 -571.332,-283.984 -556.051,-196.261 C-540.77,-108.538 -530.3,-9.21254 -524.64,101.715 L-473.704,101.715 Z M-405.79,386.956 C-380.888,362.054 -368.437,331.492 -368.437,295.271 C-368.437,259.05 -380.605,228.489 -404.941,203.587 C-429.277,178.685 -460.687,166.233 -499.172,166.233 C-537.657,166.233 -569.068,178.685 -593.404,203.587 C-617.74,228.489 -629.908,259.05 -629.908,295.271 C-629.908,331.492 -617.74,362.054 -593.404,386.956 C-569.068,411.858 -537.657,424.309 -499.172,424.309 C-460.687,424.309 -429.56,411.858 -405.79,386.956 Z M25.468,101.715 C31.1275,-9.21254 41.5977,-108.538 56.8785,-196.261 C72.1593,-283.984 86.8741,-349.351 101.023,-392.364 C115.172,-435.377 127.623,-478.955 138.376,-523.1 C149.129,-567.244 154.506,-607.993 154.506,-645.346 C154.506,-697.414 140.074,-737.031 111.21,-764.196 C82.3464,-791.362 45.2764,-804.945 8.6446e-14,-804.945 C-45.2764,-804.945 -82.3464,-791.362 -111.21,-764.196 C-140.074,-737.031 -154.506,-697.414 -154.506,-645.346 C-154.506,-607.993 -149.129,-567.244 -138.376,-523.1 C-127.623,-478.955 -115.172,-435.377 -101.023,-392.364 C-86.8741,-349.351 -72.1593,-283.984 -56.8785,-196.261 C-41.5977,-108.538 -31.1275,-9.21254 -25.468,101.715 L25.468,101.715 Z M93.3826,386.956 C118.285,362.054 130.736,331.492 130.736,295.271 C130.736,259.05 118.568,228.489 94.2315,203.587 C69.8954,178.685 38.4849,166.233 8.6446e-14,166.233 C-38.4849,166.233 -69.8954,178.685 -94.2315,203.587 C-118.568,228.489 -130.736,259.05 -130.736,295.271 C-130.736,331.492 -118.568,362.054 -94.2315,386.956 C-69.8954,411.858 -38.4849,424.309 8.6446e-14,424.309 C38.4849,424.309 69.6125,411.858 93.3826,386.956 Z M524.64,101.715 C530.3,-9.21254 540.77,-108.538 556.051,-196.261 C571.332,-283.984 586.046,-349.351 600.195,-392.364 C614.344,-435.377 626.795,-478.955 637.548,-523.1 C648.301,-567.244 653.678,-607.993 653.678,-645.346 C653.678,-697.414 639.246,-737.031 610.382,-764.196 C581.519,-791.362 544.449,-804.945 499.172,-804.945 C453.896,-804.945 416.826,-791.362 387.962,-764.196 C359.098,-737.031 344.667,-697.414 344.667,-645.346 C344.667,-607.993 350.043,-567.244 360.796,-523.1 C371.549,-478.955 384,-435.377 398.149,-392.364 C412.298,-349.351 427.013,-283.984 442.294,-196.261 C457.575,-108.538 468.045,-9.21254 473.704,101.715 L524.64,101.715 Z M592.555,386.956 C617.457,362.054 629.908,331.492 629.908,295.271 C629.908,259.05 617.74,228.489 593.404,203.587 C569.068,178.685 537.657,166.233 499.172,166.233 C460.687,166.233 429.277,178.685 404.941,203.587 C380.605,228.489 368.437,259.05 368.437,295.271 C368.437,331.492 380.605,362.054 404.941,386.956 C429.277,411.858 460.687,424.309 499.172,424.309 C537.657,424.309 568.785,411.858 592.555,386.956 Z " fill="#ffffff" fill-opacity="1.00" />			<path d="M-720.721,705.648 L-787.393,705.648 L-787.393,712.947 L-772.793,712.947 L-772.793,868.676 L-787.393,868.676 L-787.393,875.976 L-720.721,875.976 L-720.721,868.676 L-735.321,868.676 L-735.321,712.947 L-720.721,712.947 L-720.721,705.648 Z M-492.967,705.648 L-547.472,705.648 L-596.381,797.625 L-645.533,705.648 L-700.038,705.648 L-700.038,712.947 L-685.439,712.947 L-685.439,868.676 L-700.038,868.676 L-700.038,875.976 L-663.539,875.976 L-663.539,868.676 L-678.139,868.676 L-678.139,718.057 L-621.2,827.554 L-602.951,827.554 L-544.796,716.111 L-544.796,868.676 L-559.152,868.676 L-559.395,875.976 L-493.211,875.976 L-492.967,868.676 L-507.567,868.676 L-507.567,712.947 L-492.967,712.947 L-492.967,705.648 Z M-471.068,705.648 L-471.068,712.947 L-456.468,712.947 L-456.468,868.676 L-471.068,868.676 L-471.068,875.976 L-403.18,875.976 L-403.18,868.676 L-418.996,868.676 L-418.996,812.225 L-397.583,812.225 C-366.113,812.225 -343.565,807.764 -329.938,798.842 C-316.312,789.92 -309.499,775.888 -309.499,756.746 C-309.499,738.416 -316.636,725.316 -330.912,717.449 C-345.187,709.581 -367.329,705.648 -397.34,705.648 L-471.068,705.648 Z M-403.666,712.947 C-385.173,712.947 -371.75,716.394 -363.396,723.289 C-355.041,730.183 -350.864,741.335 -350.864,756.746 C-350.864,773.13 -355.082,785.256 -363.517,793.123 C-371.953,800.991 -385.336,804.925 -403.666,804.925 L-418.996,804.925 L-418.996,712.947 L-403.666,712.947 Z M-193.919,701.024 C-210.952,701.024 -226.484,704.188 -240.516,710.514 C-254.548,716.841 -266.106,726.939 -275.19,740.808 C-284.274,754.678 -288.816,771.346 -288.816,790.812 C-288.816,810.278 -284.274,826.946 -275.19,840.816 C-266.106,854.685 -254.548,864.783 -240.516,871.11 C-226.484,877.436 -210.952,880.599 -193.919,880.599 C-181.428,880.599 -169.586,878.734 -158.393,875.003 C-147.2,871.272 -137.142,865.838 -128.22,858.7 C-119.298,851.562 -112.201,842.154 -106.929,830.474 C-101.657,818.794 -99.0212,805.574 -99.0212,790.812 C-99.0212,776.05 -101.657,762.829 -106.929,751.15 C-112.201,739.47 -119.298,730.061 -128.22,722.924 C-137.142,715.786 -147.2,710.352 -158.393,706.621 C-169.586,702.89 -181.428,701.024 -193.919,701.024 Z M-193.919,708.811 C-177.372,708.811 -164.314,715.34 -154.743,728.399 C-145.172,741.457 -140.387,762.262 -140.387,790.812 C-140.387,819.362 -145.172,840.167 -154.743,853.225 C-164.314,866.284 -177.372,872.813 -193.919,872.813 C-229.607,872.813 -247.451,845.479 -247.451,790.812 C-247.451,736.144 -229.607,708.811 -193.919,708.811 Z M-78.3384,705.648 L-78.3384,712.947 L-63.7388,712.947 L-63.7388,868.676 L-78.3384,868.676 L-78.3384,875.976 L-11.6669,875.976 L-11.6669,868.676 L-26.2665,868.676 L-26.2665,810.278 L-9.23364,810.278 C-4.52933,810.278 -0.554991,810.765 2.68937,811.738 C5.93372,812.711 8.56976,813.806 10.5975,815.023 C12.6252,816.24 14.4907,818.551 16.194,821.958 C17.8973,825.364 19.195,828.365 20.0872,830.961 C20.9794,833.556 22.3177,837.936 24.1021,844.1 C27.5087,855.618 32.6591,864.215 39.5534,869.893 C46.4476,875.571 56.4646,878.41 69.6042,878.41 C77.7151,878.41 83.7172,877.355 87.6104,875.246 C91.5036,873.137 94.5047,869.731 96.6135,865.027 L91.7469,861.133 C89.6381,863.891 86.6371,865.27 82.7439,865.27 C79.6617,865.27 77.0257,864.459 74.8357,862.837 C72.6458,861.214 70.7397,857.97 69.1176,853.104 C66.6843,846.128 64.6971,840.856 63.1561,837.287 C61.615,833.718 59.2628,829.704 56.0996,825.243 C52.9363,820.782 49.3675,817.497 45.3932,815.388 C41.4189,813.279 36.0657,811.373 29.3336,809.67 C22.6016,807.966 14.6124,807.034 5.36596,806.871 L5.36596,806.628 C31.1586,806.304 50.1381,801.924 62.3044,793.488 C74.4708,785.053 80.5539,772.562 80.5539,756.016 C80.5539,738.172 73.4569,725.316 59.2628,717.449 C45.0688,709.581 22.9666,705.648 -7.0437,705.648 L-78.3384,705.648 Z M-10.9369,712.947 C6.25816,712.947 18.9111,716.394 27.022,723.289 C35.1329,730.183 39.1884,741.092 39.1884,756.016 C39.1884,772.238 35.1329,784.12 27.022,791.664 C18.9111,799.207 6.25816,802.978 -10.9369,802.978 L-26.2665,802.978 L-26.2665,712.947 L-10.9369,712.947 Z M263.049,736.307 L269.132,733.387 L257.452,705.648 L112.916,705.648 L101.237,733.387 L107.32,736.307 L117.296,712.947 L166.448,712.947 L166.448,868.676 L150.632,868.676 L150.632,875.976 L219.737,875.976 L219.737,868.676 L203.921,868.676 L203.921,712.947 L253.073,712.947 L263.049,736.307 Z M375.953,703.944 L352.107,703.944 L284.705,868.676 L271.322,868.676 L271.322,875.976 L306.604,875.976 L306.604,868.676 L292.005,868.676 L315.851,810.278 L382.522,810.278 L407.585,868.676 L392.985,868.676 L392.985,875.976 L460.144,875.976 L460.144,868.676 L446.761,868.676 L375.953,703.944 Z M348.457,730.954 L379.359,802.978 L318.771,802.978 L348.457,730.954 Z M600.543,712.947 L615.143,712.947 L615.143,844.83 L516.839,705.648 L471.093,705.648 L471.093,712.947 L485.693,712.947 L485.693,868.676 L471.093,868.676 L471.093,875.976 L507.592,875.976 L507.592,868.676 L492.993,868.676 L492.993,737.037 L591.297,875.976 L622.443,875.976 L622.443,712.947 L637.042,712.947 L637.042,705.648 L600.543,705.648 L600.543,712.947 Z M813.211,736.307 L819.294,733.387 L807.614,705.648 L663.078,705.648 L651.398,733.387 L657.482,736.307 L667.458,712.947 L716.61,712.947 L716.61,868.676 L700.794,868.676 L700.794,875.976 L769.899,875.976 L769.899,868.676 L754.082,868.676 L754.082,712.947 L803.234,712.947 L813.211,736.307 Z " fill="#ffffff" fill-opacity="1.00" />		</g>	</svg>