<?xml version="1.0" encoding="utf-8" ?>	<!-- Generator: Assembly 2.2 - http://assemblyapp.co -->	<svg version="1.1" xmlns="http://www.w3.org/2000/svg" xmlns:xlink="http://www.w3.org/1999/xlink" viewBox="0 0 2048.0 2048.0">		<g id="document" transform="matrix(1,0,0,1,1024.0,1024.0)">			<path d="M257.892,663.126 C303.746,676.984 347.842,678.917 390.181,668.925 C432.519,658.933 468.563,641.678 498.314,617.159 C528.064,592.639 555.429,562.708 580.408,527.364 C605.387,492.02 624.626,459.409 638.123,429.531 C651.621,399.653 662.577,370.794 670.99,342.954 C686.828,290.55 694.006,235.752 692.525,178.56 C691.043,121.368 680.893,66.2479 662.075,13.1995 C643.256,-39.849 612.137,-87.6788 568.718,-130.29 C525.298,-172.901 472.064,-203.734 409.015,-222.788 C356.61,-238.626 303.693,-234.289 250.265,-209.777 C196.836,-185.265 151.825,-150.166 115.231,-104.481 C78.6372,-58.7964 52.2978,-9.34234 36.2129,43.881 C15.6736,111.843 3.8647,177.529 0.786262,240.938 C-2.29218,304.348 3.66911,364.457 18.6702,421.267 C33.6712,478.076 61.5295,527.825 102.245,570.513 C142.961,613.2 194.843,644.071 257.892,663.126 Z M561.534,17.6653 C554.165,15.4381 546.357,7.26996 538.111,-6.83915 C529.864,-20.9483 521.356,-37.1472 512.585,-55.4359 C503.815,-73.7247 487.655,-94.9166 464.108,-119.012 C440.56,-143.107 411.886,-164.283 378.085,-182.541 C442.677,-156.765 494.56,-125.893 533.732,-89.9275 C572.905,-53.9615 589.027,-24.515 582.098,-1.58801 C577.396,13.9696 570.541,20.3873 561.534,17.6653 Z M333.287,271.724 C319.367,267.517 308.979,259.016 302.123,246.221 C295.266,233.425 293.57,221.296 297.035,209.833 C299.51,201.644 304.765,196.084 312.8,193.15 C320.835,190.217 328.947,189.988 337.135,192.462 C349.417,196.174 359.62,205.29 367.743,219.808 C375.866,234.327 378.318,246.908 375.101,257.553 C370.152,273.929 356.214,278.653 333.287,271.724 Z M240.225,224.834 C243.195,215.008 246.727,210.713 250.821,211.951 C253.277,212.693 256.029,219.11 259.077,231.201 C262.125,243.292 267.749,257.949 275.948,275.172 C284.147,292.394 296.388,306.593 312.669,317.769 C288.276,306.823 269.052,292.077 254.997,273.531 C240.942,254.986 236.018,238.754 240.225,224.834 Z " fill="#fffbd4" fill-opacity="1.00" />			<path d="M-696.352,393.214 C-696.352,467.61 -669.527,534.137 -615.876,592.796 C-562.225,651.454 -478.172,680.783 -363.717,680.783 C-252.123,680.783 -153.405,640.724 -67.564,560.605 C18.2775,480.487 84.8046,375.688 132.017,246.211 C179.23,116.734 214.282,-17.3937 237.173,-156.171 C260.064,-294.948 271.51,-434.44 271.51,-574.648 C271.51,-651.905 251.838,-717.359 212.494,-771.01 C173.15,-824.661 117.71,-851.486 46.1759,-851.486 C-56.8338,-851.486 -129.084,-812.142 -170.574,-733.454 C-212.064,-654.766 -223.509,-552.472 -204.91,-426.571 C-232.093,-542.457 -277.16,-632.591 -340.11,-696.972 C-403.061,-761.353 -493.91,-793.543 -612.657,-793.543 C-765.741,-793.543 -842.283,-709.133 -842.283,-540.311 C-842.283,-434.44 -806.516,-338.226 -734.981,-251.669 C-663.447,-165.113 -559.006,-115.396 -421.66,-102.52 C-477.457,-61.0298 -523.239,-21.3281 -559.006,16.5852 C-594.773,54.4985 -626.606,106.361 -654.505,172.173 C-682.403,237.985 -696.352,311.665 -696.352,393.214 Z M155.624,-602.546 C151.332,-602.546 144.536,-612.203 135.236,-631.518 C125.937,-650.832 110.915,-673.723 90.1696,-700.191 C69.4246,-726.658 44.7452,-745.615 16.1314,-757.061 C57.6214,-748.477 92.6734,-731.308 121.287,-705.556 C149.901,-679.803 164.208,-654.051 164.208,-628.299 C164.208,-611.13 161.346,-602.546 155.624,-602.546 Z M-400.199,-566.063 C-407.353,-566.063 -415.937,-572.859 -425.952,-586.451 C-435.967,-600.042 -447.055,-615.78 -459.215,-633.664 C-471.376,-651.547 -490.691,-670.146 -517.158,-689.461 C-543.626,-708.775 -574.744,-722.724 -610.511,-731.308 C-547.561,-722.724 -494.625,-705.198 -451.704,-678.73 C-408.784,-652.263 -387.323,-624.006 -387.323,-593.962 C-387.323,-575.363 -391.615,-566.063 -400.199,-566.063 Z " fill="#fabdbe" fill-opacity="1.00" />		</g>	</svg>